<svg xmlns="http://www.w3.org/2000/svg" xmlns:xlink="http://www.w3.org/1999/xlink" width="1000" zoomAndPan="magnify" viewBox="0 0 750 749.999995" height="1000" preserveAspectRatio="xMidYMid meet" version="1.0"><defs><g/><clipPath id="cb4fb3d77b"><path d="M 245.125 160.285156 L 502.132812 160.285156 L 502.132812 417.292969 L 245.125 417.292969 Z M 245.125 160.285156 " clip-rule="nonzero"/></clipPath><clipPath id="1b175bd958"><path d="M 0.125 0.285156 L 257.132812 0.285156 L 257.132812 257.292969 L 0.125 257.292969 Z M 0.125 0.285156 " clip-rule="nonzero"/></clipPath><clipPath id="5072f32a66"><rect x="0" width="258" y="0" height="258"/></clipPath><clipPath id="5732d8d441"><path d="M 422.289062 157.886719 L 504.875 157.886719 L 504.875 240.472656 L 422.289062 240.472656 Z M 422.289062 157.886719 " clip-rule="nonzero"/></clipPath><clipPath id="db262b87d8"><path d="M 0.289062 0.886719 L 82.875 0.886719 L 82.875 83.472656 L 0.289062 83.472656 Z M 0.289062 0.886719 " clip-rule="nonzero"/></clipPath><clipPath id="737c86f4c4"><rect x="0" width="83" y="0" height="84"/></clipPath><clipPath id="091db73a69"><path d="M 422.289062 157.886719 L 504.789062 157.886719 L 504.789062 240.386719 L 422.289062 240.386719 Z M 422.289062 157.886719 " clip-rule="nonzero"/></clipPath><clipPath id="c9342a51ff"><path d="M 441.292969 159.1875 L 502.132812 159.1875 L 502.132812 223.367188 L 441.292969 223.367188 Z M 441.292969 159.1875 " clip-rule="nonzero"/></clipPath><clipPath id="5c4a57bba4"><path d="M 0.292969 0.1875 L 61.132812 0.1875 L 61.132812 64.367188 L 0.292969 64.367188 Z M 0.292969 0.1875 " clip-rule="nonzero"/></clipPath><clipPath id="78cefd5deb"><rect x="0" width="62" y="0" height="65"/></clipPath><clipPath id="497bee57bd"><path d="M 370.042969 191.800781 L 452.632812 191.800781 L 452.632812 274.386719 L 370.042969 274.386719 Z M 370.042969 191.800781 " clip-rule="nonzero"/></clipPath><clipPath id="d23b1a88b3"><path d="M 0.0429688 0.800781 L 82.632812 0.800781 L 82.632812 83.386719 L 0.0429688 83.386719 Z M 0.0429688 0.800781 " clip-rule="nonzero"/></clipPath><clipPath id="00de49147b"><rect x="0" width="83" y="0" height="84"/></clipPath><clipPath id="5587f6a085"><rect x="0" width="150" y="0" height="264"/></clipPath></defs><g clip-path="url(#cb4fb3d77b)"><g transform="matrix(1, 0, 0, 1, 245, 160)"><g clip-path="url(#5072f32a66)"><g clip-path="url(#1b175bd958)"><path fill="#083944" d="M 0.125 0.285156 L 257.132812 0.285156 L 257.132812 257.292969 L 0.125 257.292969 Z M 0.125 0.285156 " fill-opacity="1" fill-rule="nonzero"/></g></g></g></g><g clip-path="url(#5732d8d441)"><g transform="matrix(1, 0, 0, 1, 422, 157)"><g clip-path="url(#737c86f4c4)"><g clip-path="url(#db262b87d8)"><path fill="#ffffff" d="M 0.289062 0.886719 L 82.875 0.886719 L 82.875 83.472656 L 0.289062 83.472656 Z M 0.289062 0.886719 " fill-opacity="1" fill-rule="nonzero"/></g></g></g></g><g clip-path="url(#091db73a69)"><path stroke-linecap="butt" transform="matrix(0.75, 0, 0, 0.75, 422.287398, 157.886907)" fill="none" stroke-linejoin="miter" d="M 0.00221924 -0.000250608 L 110.111593 -0.000250608 L 110.111593 110.109123 L 0.00221924 110.109123 Z M 0.00221924 -0.000250608 " stroke="#ffffff" stroke-width="44" stroke-opacity="1" stroke-miterlimit="4"/></g><g clip-path="url(#c9342a51ff)"><g transform="matrix(1, 0, 0, 1, 441, 159)"><g clip-path="url(#78cefd5deb)"><g clip-path="url(#5c4a57bba4)"><path fill="#009cbe" d="M 0.292969 0.1875 L 61.132812 0.1875 L 61.132812 64.355469 L 0.292969 64.355469 Z M 0.292969 0.1875 " fill-opacity="1" fill-rule="nonzero"/></g></g></g></g><g clip-path="url(#497bee57bd)"><g transform="matrix(1, 0, 0, 1, 370, 191)"><g clip-path="url(#00de49147b)"><g clip-path="url(#d23b1a88b3)"><path fill="#083944" d="M 0.0429688 0.800781 L 82.632812 0.800781 L 82.632812 83.386719 L 0.0429688 83.386719 Z M 0.0429688 0.800781 " fill-opacity="1" fill-rule="nonzero"/></g></g></g></g><g transform="matrix(1, 0, 0, 1, 299, 156)"><g clip-path="url(#5587f6a085)"><g fill="#ffffff" fill-opacity="1"><g transform="translate(0.458553, 200.586693)"><g><path d="M 126.03125 -142.484375 C 128.050781 -142.484375 129.601562 -142.050781 130.6875 -141.1875 C 131.769531 -140.320312 132.3125 -138.660156 132.3125 -136.203125 L 132.3125 -6.28125 C 132.3125 -3.820312 131.769531 -2.160156 130.6875 -1.296875 C 129.601562 -0.429688 128.050781 0 126.03125 0 L 104.59375 0 C 102.71875 0 101.203125 -0.429688 100.046875 -1.296875 C 98.890625 -2.160156 98.3125 -3.820312 98.3125 -6.28125 L 98.3125 -55.21875 L 50.015625 -55.21875 L 50.015625 -6.28125 C 50.015625 -3.820312 49.472656 -2.160156 48.390625 -1.296875 C 47.316406 -0.429688 45.769531 0 43.75 0 L 22.296875 0 C 20.421875 0 18.90625 -0.429688 17.75 -1.296875 C 16.601562 -2.160156 16.03125 -3.820312 16.03125 -6.28125 L 16.03125 -136.203125 C 16.03125 -138.660156 16.601562 -140.320312 17.75 -141.1875 C 18.90625 -142.050781 20.421875 -142.484375 22.296875 -142.484375 L 43.75 -142.484375 C 45.769531 -142.484375 47.316406 -142.050781 48.390625 -141.1875 C 49.472656 -140.320312 50.015625 -138.660156 50.015625 -136.203125 L 50.015625 -87.265625 L 98.3125 -87.265625 L 98.3125 -136.203125 C 98.3125 -138.660156 98.890625 -140.320312 100.046875 -141.1875 C 101.203125 -142.050781 102.71875 -142.484375 104.59375 -142.484375 Z M 126.03125 -142.484375 "/></g></g></g></g></g><g fill="#000000" fill-opacity="1"><g transform="translate(175.267742, 582.478528)"><g><path d="M 29.953125 -35.65625 C 29.628906 -37.070312 28.960938 -38.226562 27.953125 -39.125 C 26.953125 -40.019531 25.773438 -40.679688 24.421875 -41.109375 C 23.066406 -41.546875 21.707031 -41.765625 20.34375 -41.765625 C 18.6875 -41.765625 17.035156 -41.476562 15.390625 -40.90625 C 13.742188 -40.332031 12.414062 -39.40625 11.40625 -38.125 C 10.988281 -37.625 10.6875 -37.039062 10.5 -36.375 C 10.320312 -35.707031 10.234375 -35.035156 10.234375 -34.359375 C 10.234375 -32.523438 10.769531 -31.148438 11.84375 -30.234375 C 12.925781 -29.316406 14.300781 -28.695312 15.96875 -28.375 C 17.644531 -28.050781 19.375 -27.800781 21.15625 -27.625 C 22.8125 -27.4375 24.507812 -27.144531 26.25 -26.75 C 27.988281 -26.363281 29.644531 -25.804688 31.21875 -25.078125 C 32.800781 -24.347656 34.175781 -23.363281 35.34375 -22.125 C 36.507812 -20.882812 37.320312 -19.300781 37.78125 -17.375 C 38.007812 -16.238281 38.125 -15.1875 38.125 -14.21875 C 38.125 -11.882812 37.609375 -9.8125 36.578125 -8 C 35.546875 -6.195312 34.171875 -4.664062 32.453125 -3.40625 C 30.742188 -2.144531 28.820312 -1.191406 26.6875 -0.546875 C 24.5625 0.0859375 22.421875 0.40625 20.265625 0.40625 C 18.429688 0.40625 16.539062 0.132812 14.59375 -0.40625 C 12.644531 -0.957031 10.835938 -1.769531 9.171875 -2.84375 C 7.503906 -3.925781 6.109375 -5.28125 4.984375 -6.90625 C 3.859375 -8.53125 3.179688 -10.421875 2.953125 -12.578125 L 2.890625 -13.875 L 9.890625 -14.015625 L 9.96875 -12.984375 L 9.96875 -13.265625 C 10.144531 -11.796875 10.769531 -10.546875 11.84375 -9.515625 C 12.925781 -8.484375 14.242188 -7.710938 15.796875 -7.203125 C 17.359375 -6.703125 18.875 -6.453125 20.34375 -6.453125 C 22.082031 -6.453125 23.773438 -6.757812 25.421875 -7.375 C 27.066406 -8 28.425781 -8.894531 29.5 -10.0625 C 30.582031 -11.226562 31.125 -12.640625 31.125 -14.296875 C 31.125 -14.796875 31.054688 -15.34375 30.921875 -15.9375 C 30.640625 -17.175781 29.960938 -18.101562 28.890625 -18.71875 C 27.816406 -19.34375 26.519531 -19.789062 25 -20.0625 C 23.488281 -20.332031 21.9375 -20.535156 20.34375 -20.671875 C 18.457031 -20.859375 16.550781 -21.144531 14.625 -21.53125 C 12.707031 -21.925781 10.921875 -22.554688 9.265625 -23.421875 C 7.617188 -24.296875 6.257812 -25.5 5.1875 -27.03125 C 4.113281 -28.570312 3.484375 -30.597656 3.296875 -33.109375 L 3.296875 -33.046875 C 3.296875 -33.273438 3.285156 -33.476562 3.265625 -33.65625 C 3.242188 -33.84375 3.234375 -34.03125 3.234375 -34.21875 C 3.234375 -37.195312 4.125 -39.851562 5.90625 -42.1875 C 7.507812 -44.289062 9.640625 -45.878906 12.296875 -46.953125 C 14.953125 -48.035156 17.675781 -48.578125 20.46875 -48.578125 C 22.945312 -48.578125 25.363281 -48.128906 27.71875 -47.234375 C 30.082031 -46.335938 32.085938 -44.960938 33.734375 -43.109375 C 35.378906 -41.253906 36.410156 -38.863281 36.828125 -35.9375 Z M 29.953125 -35.65625 "/></g></g></g><g fill="#000000" fill-opacity="1"><g transform="translate(216.97302, 582.478528)"><g><path d="M 2.40625 -24.046875 C 2.40625 -27.523438 3.046875 -30.773438 4.328125 -33.796875 C 5.609375 -36.828125 7.394531 -39.484375 9.6875 -41.765625 C 11.976562 -44.054688 14.625 -45.84375 17.625 -47.125 C 20.625 -48.40625 23.863281 -49.046875 27.34375 -49.046875 C 30.820312 -49.046875 34.070312 -48.40625 37.09375 -47.125 C 40.125 -45.84375 42.78125 -44.054688 45.0625 -41.765625 C 47.351562 -39.484375 49.140625 -36.828125 50.421875 -33.796875 C 51.710938 -30.773438 52.359375 -27.523438 52.359375 -24.046875 C 52.359375 -20.566406 51.710938 -17.328125 50.421875 -14.328125 C 49.140625 -11.328125 47.351562 -8.679688 45.0625 -6.390625 C 42.78125 -4.097656 40.125 -2.3125 37.09375 -1.03125 C 34.070312 0.25 30.820312 0.890625 27.34375 0.890625 C 23.863281 0.890625 20.625 0.25 17.625 -1.03125 C 14.625 -2.3125 11.976562 -4.097656 9.6875 -6.390625 C 7.394531 -8.679688 5.609375 -11.328125 4.328125 -14.328125 C 3.046875 -17.328125 2.40625 -20.566406 2.40625 -24.046875 Z M 9.546875 -24.046875 C 9.546875 -20.742188 10.347656 -17.753906 11.953125 -15.078125 C 13.554688 -12.398438 15.695312 -10.257812 18.375 -8.65625 C 21.050781 -7.050781 24.039062 -6.25 27.34375 -6.25 C 30.644531 -6.25 33.644531 -7.050781 36.34375 -8.65625 C 39.039062 -10.257812 41.191406 -12.398438 42.796875 -15.078125 C 44.398438 -17.753906 45.203125 -20.742188 45.203125 -24.046875 C 45.203125 -27.347656 44.398438 -30.347656 42.796875 -33.046875 C 41.191406 -35.742188 39.039062 -37.894531 36.34375 -39.5 C 33.644531 -41.101562 30.644531 -41.90625 27.34375 -41.90625 C 24.039062 -41.90625 21.050781 -41.101562 18.375 -39.5 C 15.695312 -37.894531 13.554688 -35.742188 11.953125 -33.046875 C 10.347656 -30.347656 9.546875 -27.347656 9.546875 -24.046875 Z M 9.546875 -24.046875 "/></g></g></g><g fill="#000000" fill-opacity="1"><g transform="translate(273.038081, 582.478528)"><g><path d="M 35.453125 -6.9375 L 35.453125 0 L 5.90625 0 L 5.90625 -48.09375 L 12.84375 -48.09375 L 12.84375 -6.9375 Z M 35.453125 -6.9375 "/></g></g></g><g fill="#000000" fill-opacity="1"><g transform="translate(309.659024, 582.478528)"><g><path d="M 23.078125 0.484375 C 20.972656 0.484375 18.867188 0.164062 16.765625 -0.46875 C 14.660156 -1.113281 12.75 -2.054688 11.03125 -3.296875 C 9.3125 -4.535156 7.925781 -6.082031 6.875 -7.9375 C 5.820312 -9.789062 5.296875 -11.953125 5.296875 -14.421875 L 5.296875 -48.578125 L 12.296875 -48.578125 L 12.296875 -14.359375 C 12.296875 -12.617188 12.84375 -11.148438 13.9375 -9.953125 C 15.039062 -8.765625 16.414062 -7.882812 18.0625 -7.3125 C 19.71875 -6.738281 21.390625 -6.453125 23.078125 -6.453125 C 24.773438 -6.453125 26.4375 -6.75 28.0625 -7.34375 C 29.6875 -7.945312 31.046875 -8.84375 32.140625 -10.03125 C 33.242188 -11.21875 33.796875 -12.679688 33.796875 -14.421875 L 33.796875 -48.578125 L 40.8125 -48.578125 L 40.8125 -14.359375 C 40.8125 -11.929688 40.285156 -9.789062 39.234375 -7.9375 C 38.179688 -6.082031 36.78125 -4.535156 35.03125 -3.296875 C 33.289062 -2.054688 31.378906 -1.113281 29.296875 -0.46875 C 27.210938 0.164062 25.140625 0.484375 23.078125 0.484375 Z M 23.078125 0.484375 "/></g></g></g><g fill="#000000" fill-opacity="1"><g transform="translate(356.586035, 582.478528)"><g><path d="M 14.984375 -41.984375 L 0.40625 -41.984375 L 0.40625 -48.578125 L 36.40625 -48.578125 L 36.40625 -41.984375 L 21.921875 -41.984375 L 21.921875 0 L 14.984375 0 Z M 14.984375 -41.984375 "/></g></g></g><g fill="#000000" fill-opacity="1"><g transform="translate(394.306298, 582.478528)"><g><path d="M 21.78125 -42.109375 L 21.78125 -6.453125 L 30.703125 -6.453125 L 30.703125 0 L 5.90625 0 L 5.90625 -6.453125 L 14.84375 -6.453125 L 14.84375 -42.109375 L 5.90625 -42.109375 L 5.90625 -48.5 L 30.703125 -48.5 L 30.703125 -42.109375 Z M 21.78125 -42.109375 "/></g></g></g><g fill="#000000" fill-opacity="1"><g transform="translate(429.484382, 582.478528)"><g><path d="M 2.40625 -24.046875 C 2.40625 -27.523438 3.046875 -30.773438 4.328125 -33.796875 C 5.609375 -36.828125 7.394531 -39.484375 9.6875 -41.765625 C 11.976562 -44.054688 14.625 -45.84375 17.625 -47.125 C 20.625 -48.40625 23.863281 -49.046875 27.34375 -49.046875 C 30.820312 -49.046875 34.070312 -48.40625 37.09375 -47.125 C 40.125 -45.84375 42.78125 -44.054688 45.0625 -41.765625 C 47.351562 -39.484375 49.140625 -36.828125 50.421875 -33.796875 C 51.710938 -30.773438 52.359375 -27.523438 52.359375 -24.046875 C 52.359375 -20.566406 51.710938 -17.328125 50.421875 -14.328125 C 49.140625 -11.328125 47.351562 -8.679688 45.0625 -6.390625 C 42.78125 -4.097656 40.125 -2.3125 37.09375 -1.03125 C 34.070312 0.25 30.820312 0.890625 27.34375 0.890625 C 23.863281 0.890625 20.625 0.25 17.625 -1.03125 C 14.625 -2.3125 11.976562 -4.097656 9.6875 -6.390625 C 7.394531 -8.679688 5.609375 -11.328125 4.328125 -14.328125 C 3.046875 -17.328125 2.40625 -20.566406 2.40625 -24.046875 Z M 9.546875 -24.046875 C 9.546875 -20.742188 10.347656 -17.753906 11.953125 -15.078125 C 13.554688 -12.398438 15.695312 -10.257812 18.375 -8.65625 C 21.050781 -7.050781 24.039062 -6.25 27.34375 -6.25 C 30.644531 -6.25 33.644531 -7.050781 36.34375 -8.65625 C 39.039062 -10.257812 41.191406 -12.398438 42.796875 -15.078125 C 44.398438 -17.753906 45.203125 -20.742188 45.203125 -24.046875 C 45.203125 -27.347656 44.398438 -30.347656 42.796875 -33.046875 C 41.191406 -35.742188 39.039062 -37.894531 36.34375 -39.5 C 33.644531 -41.101562 30.644531 -41.90625 27.34375 -41.90625 C 24.039062 -41.90625 21.050781 -41.101562 18.375 -39.5 C 15.695312 -37.894531 13.554688 -35.742188 11.953125 -33.046875 C 10.347656 -30.347656 9.546875 -27.347656 9.546875 -24.046875 Z M 9.546875 -24.046875 "/></g></g></g><g fill="#000000" fill-opacity="1"><g transform="translate(485.549442, 582.478528)"><g><path d="M 5.90625 -48.09375 L 11.265625 -48.09375 L 34.6875 -14.21875 L 34.6875 -48.09375 L 41.5625 -48.09375 L 41.5625 0 L 36.0625 0 L 12.84375 -33.59375 L 12.84375 0 L 5.90625 0 Z M 5.90625 -48.09375 "/></g></g></g><g fill="#000000" fill-opacity="1"><g transform="translate(533.850603, 582.478528)"><g><path d="M 29.953125 -35.65625 C 29.628906 -37.070312 28.960938 -38.226562 27.953125 -39.125 C 26.953125 -40.019531 25.773438 -40.679688 24.421875 -41.109375 C 23.066406 -41.546875 21.707031 -41.765625 20.34375 -41.765625 C 18.6875 -41.765625 17.035156 -41.476562 15.390625 -40.90625 C 13.742188 -40.332031 12.414062 -39.40625 11.40625 -38.125 C 10.988281 -37.625 10.6875 -37.039062 10.5 -36.375 C 10.320312 -35.707031 10.234375 -35.035156 10.234375 -34.359375 C 10.234375 -32.523438 10.769531 -31.148438 11.84375 -30.234375 C 12.925781 -29.316406 14.300781 -28.695312 15.96875 -28.375 C 17.644531 -28.050781 19.375 -27.800781 21.15625 -27.625 C 22.8125 -27.4375 24.507812 -27.144531 26.25 -26.75 C 27.988281 -26.363281 29.644531 -25.804688 31.21875 -25.078125 C 32.800781 -24.347656 34.175781 -23.363281 35.34375 -22.125 C 36.507812 -20.882812 37.320312 -19.300781 37.78125 -17.375 C 38.007812 -16.238281 38.125 -15.1875 38.125 -14.21875 C 38.125 -11.882812 37.609375 -9.8125 36.578125 -8 C 35.546875 -6.195312 34.171875 -4.664062 32.453125 -3.40625 C 30.742188 -2.144531 28.820312 -1.191406 26.6875 -0.546875 C 24.5625 0.0859375 22.421875 0.40625 20.265625 0.40625 C 18.429688 0.40625 16.539062 0.132812 14.59375 -0.40625 C 12.644531 -0.957031 10.835938 -1.769531 9.171875 -2.84375 C 7.503906 -3.925781 6.109375 -5.28125 4.984375 -6.90625 C 3.859375 -8.53125 3.179688 -10.421875 2.953125 -12.578125 L 2.890625 -13.875 L 9.890625 -14.015625 L 9.96875 -12.984375 L 9.96875 -13.265625 C 10.144531 -11.796875 10.769531 -10.546875 11.84375 -9.515625 C 12.925781 -8.484375 14.242188 -7.710938 15.796875 -7.203125 C 17.359375 -6.703125 18.875 -6.453125 20.34375 -6.453125 C 22.082031 -6.453125 23.773438 -6.757812 25.421875 -7.375 C 27.066406 -8 28.425781 -8.894531 29.5 -10.0625 C 30.582031 -11.226562 31.125 -12.640625 31.125 -14.296875 C 31.125 -14.796875 31.054688 -15.34375 30.921875 -15.9375 C 30.640625 -17.175781 29.960938 -18.101562 28.890625 -18.71875 C 27.816406 -19.34375 26.519531 -19.789062 25 -20.0625 C 23.488281 -20.332031 21.9375 -20.535156 20.34375 -20.671875 C 18.457031 -20.859375 16.550781 -21.144531 14.625 -21.53125 C 12.707031 -21.925781 10.921875 -22.554688 9.265625 -23.421875 C 7.617188 -24.296875 6.257812 -25.5 5.1875 -27.03125 C 4.113281 -28.570312 3.484375 -30.597656 3.296875 -33.109375 L 3.296875 -33.046875 C 3.296875 -33.273438 3.285156 -33.476562 3.265625 -33.65625 C 3.242188 -33.84375 3.234375 -34.03125 3.234375 -34.21875 C 3.234375 -37.195312 4.125 -39.851562 5.90625 -42.1875 C 7.507812 -44.289062 9.640625 -45.878906 12.296875 -46.953125 C 14.953125 -48.035156 17.675781 -48.578125 20.46875 -48.578125 C 22.945312 -48.578125 25.363281 -48.128906 27.71875 -47.234375 C 30.082031 -46.335938 32.085938 -44.960938 33.734375 -43.109375 C 35.378906 -41.253906 36.410156 -38.863281 36.828125 -35.9375 Z M 29.953125 -35.65625 "/></g></g></g><g fill="#000000" fill-opacity="1"><g transform="translate(174.132482, 512.423971)"><g><path d="M 53.65625 0 L 38.25 0 L 38.25 -24.390625 L 19.890625 -24.390625 L 19.890625 0 L 4.5 0 L 4.5 -63.015625 L 19.890625 -63.015625 L 19.890625 -39.25 L 38.25 -39.25 L 38.25 -63.015625 L 53.65625 -63.015625 Z M 53.65625 0 "/></g></g></g><g fill="#000000" fill-opacity="1"><g transform="translate(236.871336, 512.423971)"><g><path d="M 28.984375 0.90625 C 25.921875 0.90625 22.929688 0.472656 20.015625 -0.390625 C 17.109375 -1.265625 14.484375 -2.570312 12.140625 -4.3125 C 9.804688 -6.0625 7.945312 -8.253906 6.5625 -10.890625 C 5.1875 -13.535156 4.5 -16.65625 4.5 -20.25 L 4.5 -63.015625 L 19.890625 -63.015625 L 19.890625 -20.34375 C 19.890625 -18 20.804688 -16.242188 22.640625 -15.078125 C 24.472656 -13.910156 26.5 -13.328125 28.71875 -13.328125 C 31 -13.328125 33.066406 -13.910156 34.921875 -15.078125 C 36.785156 -16.242188 37.71875 -18 37.71875 -20.34375 L 37.71875 -63.015625 L 53.109375 -63.015625 L 53.109375 -20.25 C 53.109375 -16.707031 52.429688 -13.613281 51.078125 -10.96875 C 49.734375 -8.332031 47.90625 -6.128906 45.59375 -4.359375 C 43.28125 -2.585938 40.679688 -1.265625 37.796875 -0.390625 C 34.921875 0.472656 31.984375 0.90625 28.984375 0.90625 Z M 28.984375 0.90625 "/></g></g></g><g fill="#000000" fill-opacity="1"><g transform="translate(298.169997, 512.423971)"><g><path d="M 33.75 -63.015625 C 37.113281 -63.015625 40.039062 -62.1875 42.53125 -60.53125 C 45.019531 -58.882812 46.953125 -56.769531 48.328125 -54.1875 C 49.710938 -51.601562 50.40625 -48.929688 50.40625 -46.171875 C 50.40625 -44.015625 49.925781 -41.898438 48.96875 -39.828125 C 48.007812 -37.753906 46.476562 -36 44.375 -34.5625 C 47.738281 -32.882812 50.140625 -30.753906 51.578125 -28.171875 C 53.015625 -25.585938 53.734375 -22.976562 53.734375 -20.34375 C 53.734375 -16.976562 52.96875 -13.734375 51.4375 -10.609375 C 49.914062 -7.492188 47.664062 -4.945312 44.6875 -2.96875 C 41.71875 -0.988281 38.015625 0 33.578125 0 L 4.59375 0 L 4.59375 -63.015625 Z M 31.421875 -40.234375 C 32.796875 -40.234375 33.796875 -40.695312 34.421875 -41.625 C 35.054688 -42.5625 35.375 -43.597656 35.375 -44.734375 C 35.375 -45.816406 35.039062 -46.804688 34.375 -47.703125 C 33.71875 -48.609375 32.789062 -49.0625 31.59375 -49.0625 L 19.796875 -49.0625 L 19.796875 -40.234375 Z M 33.578125 -14.578125 C 35.191406 -14.578125 36.40625 -15.160156 37.21875 -16.328125 C 38.03125 -17.503906 38.4375 -18.8125 38.4375 -20.25 C 38.4375 -21.6875 38.03125 -23.003906 37.21875 -24.203125 C 36.40625 -25.410156 35.191406 -26.015625 33.578125 -26.015625 L 19.796875 -26.015625 L 19.796875 -14.578125 Z M 33.578125 -14.578125 "/></g></g></g><g fill="#000000" fill-opacity="1"><g transform="translate(360.45895, 512.423971)"><g><path d="M 4.5 -63.015625 L 19.890625 -63.015625 L 19.890625 -14.859375 L 46.359375 -14.859375 L 46.359375 0 L 4.5 0 Z M 4.5 -63.015625 "/></g></g></g><g fill="#000000" fill-opacity="1"><g transform="translate(413.746576, 512.423971)"><g><path d="M 40.140625 0 L 3.875 0 L 3.875 -13.765625 L 14.3125 -13.765625 L 14.3125 -49.328125 L 3.875 -49.328125 L 3.875 -63.375 L 40.140625 -63.375 L 40.140625 -49.328125 L 29.703125 -49.328125 L 29.703125 -13.765625 L 40.140625 -13.765625 Z M 40.140625 0 "/></g></g></g><g fill="#000000" fill-opacity="1"><g transform="translate(462.443747, 512.423971)"><g><path d="M 38.171875 -63.015625 L 53.375 -63.015625 L 53.375 0 L 41.3125 0 L 19.796875 -30.703125 L 19.796875 0 L 4.5 0 L 4.5 -63.015625 L 16.390625 -63.015625 L 38.171875 -31.5 Z M 38.171875 -63.015625 "/></g></g></g><g fill="#000000" fill-opacity="1"><g transform="translate(525.632824, 512.423971)"><g><path d="M 4.5 -63.546875 L 46 -63.546875 L 46 -48.703125 L 19.984375 -48.703125 L 19.984375 -39.875 L 45.453125 -39.875 L 45.453125 -24.9375 L 19.984375 -24.9375 L 19.984375 -14.859375 L 46.09375 -14.859375 L 46.09375 0 L 4.5 0 Z M 4.5 -63.546875 "/></g></g></g></svg>